<?xml version="1.0" encoding="utf-8"?>
<svg width="400" height="40" viewBox="0 0 277.482 26.716" fill="none" xmlns="http://www.w3.org/2000/svg">
  <g id="SvgjsG7962" featurekey="vMvB0T-0" transform="matrix(1.803111, 0, 0, 1.803111, -0.7287, -7.889659)" fill="#ffffff">
    <path d="M13.38 5.4399999999999995 l-12.56 0 l0 12.56 c0 0.37334 0.18666 0.56 0.56 0.56 s0.56 -0.18666 0.56 -0.56 l0 -3.44 l11.44 0 c1.2667 0 2.3434 -0.44666 3.23 -1.34 s1.33 -1.9667 1.33 -3.22 c0 -1.2667 -0.44334 -2.3434 -1.33 -3.23 s-1.9633 -1.33 -3.23 -1.33 z M13.38 13.440000000000001 l-11.44 0 l0 -6.88 l11.44 0 c0.94666 0 1.7567 0.33666 2.43 1.01 s1.01 1.4833 1.01 2.43 s-0.33666 1.7567 -1.01 2.43 s-1.4833 1.01 -2.43 1.01 z M40.72 17.64 l-10.76 -12.5 l-10.42 12.5 c-0.08 0.09334 -0.12 0.20668 -0.12 0.34002 c0 0.38666 0.19334 0.58 0.58 0.58 c0.16 0 0.29334 -0.06666 0.4 -0.2 l0 0 l3.16 -3.8 l13.04 0 l3.28 3.8 c0.12 0.13334 0.26666 0.2 0.44 0.2 c0.36 0 0.54 -0.18 0.54 -0.54 c0 -0.14666 -0.04666 -0.27332 -0.14 -0.37998 z M24.5 13.440000000000001 l5.48 -6.58 l5.68 6.58 l-11.16 0 z M59.14 17.56 l-15.44 0 l0 -11.44 c0 -0.37334 -0.18666 -0.56 -0.56 -0.56 s-0.56 0.18666 -0.56 0.56 l0 12.54 l16.56 0 c0.37334 0 0.56 -0.18 0.56 -0.54 c0 -0.37334 -0.18666 -0.56 -0.56 -0.56 z M77.58000000000001 12.559999999999999 c0.37334 0 0.56 -0.18666 0.56 -0.56 s-0.18666 -0.56 -0.56 -0.56 l-15.44 0 l0 -4.88 l15.44 0 c0.37334 0 0.56 -0.18666 0.56 -0.56 s-0.18666 -0.56 -0.56 -0.56 l-16.56 0 l0 13.12 l16.56 0 c0.37334 0 0.56 -0.18666 0.56 -0.56 s-0.18666 -0.56 -0.56 -0.56 l-15.44 0 l0 -4.88 l15.44 0 z M95.88000000000001 5.4399999999999995 l-16 0 c-0.37334 0 -0.56 0.18666 -0.56 0.56 s0.18666 0.56 0.56 0.56 l7.44 0 l0 11.44 c0 0.37334 0.18666 0.56 0.56 0.56 s0.56 -0.18666 0.56 -0.56 l0 -11.44 l7.44 0 c0.37334 0 0.56 -0.18666 0.56 -0.56 s-0.18666 -0.56 -0.56 -0.56 z M113.80000000000001 5.4399999999999995 l-16 0 c-0.37334 0 -0.56 0.18666 -0.56 0.56 s0.18666 0.56 0.56 0.56 l7.44 0 l0 11.44 c0 0.37334 0.18666 0.56 0.56 0.56 s0.56 -0.18666 0.56 -0.56 l0 -11.44 l7.44 0 c0.37334 0 0.56 -0.18666 0.56 -0.56 s-0.18666 -0.56 -0.56 -0.56 z M115.66000000000001 6.119999999999999 l0 12 c0 0.36 0.18 0.54 0.54 0.54 c0.37334 0 0.56 -0.18 0.56 -0.54 l0 0 l0 -12 c0 -0.37334 -0.18666 -0.56 -0.56 -0.56 c-0.36 0 -0.54 0.18666 -0.54 0.56 z M135.18 11.44 l-15.44 0 l0 -4.88 l15.44 0 c0.37334 0 0.56 -0.18666 0.56 -0.56 s-0.18666 -0.56 -0.56 -0.56 l-16.56 0 l0 12.56 c0 0.37334 0.18666 0.56 0.56 0.56 s0.56 -0.18666 0.56 -0.56 l0 -5.44 l15.44 0 c0.37334 0 0.56 -0.18666 0.56 -0.56 s-0.18666 -0.56 -0.56 -0.56 z M153.36 5.5600000000000005 c-0.14666 0 -0.27334 0.05336 -0.38 0.16002 l0 0 l-7.62 7.6 l-7.6 -7.6 c-0.10666 -0.10666 -0.24 -0.16 -0.4 -0.16 c-0.36 0 -0.54 0.18666 -0.54 0.56 c0 0.14666 0.05334 0.27332 0.16 0.37998 l7.82 7.84 l0 3.78 c0 0.36 0.18666 0.54 0.56 0.54 s0.56 -0.18 0.56 -0.54 l0 -3.78 l7.84 -7.84 c0.10666 -0.10666 0.16 -0.24 0.16 -0.4 c0 -0.36 -0.18666 -0.54 -0.56 -0.54 z" style=""/>
  </g>
</svg>