<svg width="400" height="75" viewBox="0 0 400 75" fill="none" xmlns="http://www.w3.org/2000/svg">
<g id="SvgjsG1017" featurekey="symbolFeature-0" transform="matrix(0.9431590437889099,0,0,0.9431590437889099,-10.186117673093586,-10.186117673093586)" fill="#fff"><path xmlns="http://www.w3.org/2000/svg" d="M48,42.5c0.3,1,0.6,2,0.8,2.9C48.5,44.5,48.2,43.6,48,42.5z M43.2,39.3c-1.4-1.7-3.1-3.3-5-4.6c0.8,2.2,2,4.2,3.2,6  c1.4,1,2.7,2,3.8,3.1C44.5,42.4,43.8,41,43.2,39.3z M32.2,42.6c1.8,1.5,3.8,2.7,5.8,3.6c1.7,0.1,3.3,0.4,4.8,0.8  c-1.3-0.8-2.6-1.7-3.9-2.8C36.8,43.4,34.5,42.8,32.2,42.6z M39.3,43.2c1.6,0.6,3.1,1.3,4.4,2c-1-1.1-2.1-2.4-3.1-3.8  c-1.8-1.2-3.8-2.4-6-3.2C36.1,40.2,37.7,41.8,39.3,43.2z M45.2,50c-0.9,0-1.9,0-2.9,0C43.3,50,44.3,50,45.2,50z M48,57.5  c0.3-1,0.6-2,0.8-2.9C48.5,55.5,48.2,56.4,48,57.5z M42.5,48c1,0.3,2,0.6,2.9,0.8C44.5,48.5,43.6,48.2,42.5,48z M47.6,45.8  c-0.4-0.8-0.9-1.6-1.5-2.5C46.6,44.2,47.1,45.1,47.6,45.8z M47.2,37.7c0.7,1.6,1.3,3.1,1.7,4.5c0.1-1.5,0.2-3.1,0.5-4.8  c-0.4-2.1-1-4.3-2-6.5C47.1,33.2,47.1,35.5,47.2,37.7z M52,42.5c-0.3,1-0.6,2-0.8,2.9C51.5,44.5,51.8,43.6,52,42.5z M51.2,54.6  c0.2,0.9,0.5,1.8,0.8,2.9C51.8,56.4,51.5,55.5,51.2,54.6z M50,23.6c-0.8,1.6-1.6,3.3-2.1,5.2c0,0.2-0.1,0.3-0.1,0.5  c1,1.9,1.7,3.8,2.2,5.7c0.5-1.9,1.2-3.8,2.2-5.7c0-0.2-0.1-0.3-0.1-0.5C51.6,26.9,50.8,25.2,50,23.6z M50,54.8c0,0.9,0,1.9,0,2.9  C50,56.7,50,55.7,50,54.8z M50,42.3c0,1.1,0,2,0,2.9C50,44.3,50,43.3,50,42.3z M28.9,46.5c0.2,0.1,0.3,0.2,0.5,0.2  c2.1-0.5,4.1-0.6,6.1-0.6c-1.7-1-3.4-2.1-4.9-3.6c-0.2,0-0.4,0-0.5,0c-1.9,0-3.8,0.3-5.5,0.7C25.8,44.4,27.3,45.5,28.9,46.5z   M32.6,62.4c0.2,0,0.3-0.1,0.5-0.2c1.1-1.8,2.5-3.4,3.9-4.8c-1.9,0.5-3.9,0.9-6,1c-0.1,0.1-0.3,0.2-0.4,0.4  c-1.4,1.4-2.5,2.8-3.4,4.4C28.9,63.1,30.8,62.9,32.6,62.4z M37.4,49.5c1.7-0.3,3.3-0.4,4.8-0.5c-1.4-0.4-3-1-4.5-1.7  c-2.2-0.2-4.5-0.1-6.8,0.2C33,48.5,35.2,49.1,37.4,49.5z M30,57.5c0.2,0,0.4,0,0.5,0c1.6-1.4,3.2-2.6,5-3.6c-0.1,0-0.1,0-0.2,0  c-1.9,0-3.9-0.2-5.8-0.6c-0.2,0.1-0.3,0.2-0.5,0.3c-1.7,1-3.1,2.1-4.4,3.3C26.2,57.2,28.1,57.5,30,57.5z M43.2,60.7  c0.6-1.6,1.3-3.1,2-4.4c-1.1,1-2.4,2.1-3.8,3.1c-1.2,1.8-2.4,3.8-3.2,6C40.2,63.9,41.8,62.3,43.2,60.7z M44.5,44.5  c0.7,0.8,1.4,1.5,2.1,2.1C46,46,45.3,45.3,44.5,44.5z M46.6,53.4c-0.7,0.6-1.4,1.3-2.1,2.1C45.3,54.7,46,54,46.6,53.4z M28.7,52.1  c0.2,0,0.3,0.1,0.5,0.1c1.9-1,3.8-1.7,5.7-2.2c-1.9-0.5-3.8-1.2-5.7-2.2c-0.2,0-0.4,0.1-0.5,0.1c-1.8,0.5-3.6,1.2-5.2,2.1  C25.2,50.8,26.9,51.6,28.7,52.1z M43.8,54.8c-1.3,0.7-2.8,1.4-4.4,2c-1.7,1.4-3.3,3.1-4.6,5c2.2-0.8,4.2-2,6-3.2  C41.7,57.1,42.7,55.9,43.8,54.8z M42.5,52c1-0.2,2-0.5,2.9-0.8C44.5,51.4,43.5,51.7,42.5,52z M38.8,55.9c1.3-1.1,2.7-2.1,3.9-2.8  c-1.5,0.3-3.1,0.6-4.8,0.8c-2,0.9-3.9,2.1-5.8,3.6C34.5,57.2,36.8,56.6,38.8,55.9z M37.7,52.8c1.6-0.7,3.1-1.3,4.5-1.7  c-1.5-0.1-3.1-0.2-4.8-0.5c-2.1,0.4-4.4,1-6.5,2C33.2,52.9,35.5,52.9,37.7,52.8z M43.3,53.9c0.9-0.5,1.8-1,2.5-1.5  C45.1,52.8,44.2,53.3,43.3,53.9z M32.6,37.6c-1.8-0.5-3.7-0.7-5.5-0.8c1,1.5,2.1,3,3.4,4.4c0.1,0.1,0.3,0.3,0.4,0.4  c2.1,0.1,4.1,0.4,6,1c-1.4-1.4-2.7-3-3.9-4.8C33,37.7,32.8,37.6,32.6,37.6z M50.5,37.4c0.3,1.7,0.5,3.3,0.5,4.8c0.4-1.4,1-3,1.7-4.5  c0.2-2.2,0.1-4.5-0.2-6.8C51.5,33,50.9,35.2,50.5,37.4z M43.3,46.1c0.9,0.6,1.8,1.1,2.6,1.5C45.1,47.1,44.2,46.6,43.3,46.1z   M55.9,38.8c0.7-2,1.3-4.3,1.5-6.6c-1.5,1.8-2.7,3.8-3.6,5.8c-0.1,1.7-0.4,3.3-0.8,4.8C53.8,41.5,54.8,40.1,55.9,38.8z M71.1,46.5  c1.7-1,3.1-2.1,4.4-3.3c-1.8-0.4-3.6-0.7-5.5-0.7c-0.2,0-0.4,0-0.5,0c-1.6,1.4-3.2,2.6-4.9,3.6c2,0,4,0.2,6.1,0.6  C70.8,46.7,70.9,46.6,71.1,46.5z M53.4,46.6c0.7-0.6,1.4-1.3,2.1-2.1C54.7,45.3,54,46,53.4,46.6z M62.6,50.5  c-1.7,0.3-3.3,0.5-4.8,0.5c1.4,0.4,3,1,4.5,1.7c2.2,0.2,4.5,0.1,6.8-0.2C67,51.5,64.7,50.9,62.6,50.5z M67.4,37.6  c-0.2,0-0.3,0.1-0.5,0.2c-1.1,1.8-2.5,3.4-3.9,4.8c1.9-0.5,3.9-0.9,6-1c0.1-0.1,0.3-0.2,0.4-0.4c1.4-1.4,2.5-2.8,3.4-4.4  C71.1,36.9,69.2,37.1,67.4,37.6z M56.8,39.3c-0.6,1.6-1.3,3.1-2,4.4c1.1-1,2.4-2.1,3.8-3.1c1.2-1.8,2.4-3.8,3.2-6  C59.8,36.1,58.2,37.7,56.8,39.3z M67.8,57.4c-1.8-1.5-3.8-2.7-5.8-3.6c-1.7-0.1-3.3-0.4-4.8-0.8c1.3,0.8,2.6,1.7,3.9,2.8  C63.2,56.6,65.5,57.2,67.8,57.4z M56.2,45.2c1.3-0.7,2.8-1.4,4.4-2c1.7-1.4,3.3-3.1,4.6-5c-2.2,0.8-4.2,2-6,3.2  C58.3,42.9,57.3,44.1,56.2,45.2z M62.3,47.2c-1.6,0.7-3.1,1.3-4.5,1.7c1.5,0.1,3.1,0.2,4.8,0.5c2.1-0.4,4.3-1,6.5-2  C66.8,47.1,64.5,47.1,62.3,47.2z M54.6,51.2c0.9,0.3,1.8,0.5,2.9,0.8C56.5,51.7,55.5,51.4,54.6,51.2z M54.8,50c0.9,0,1.9,0,2.9,0  C56.7,50,55.7,50,54.8,50z M57.5,48c-1,0.2-2,0.5-2.9,0.8C55.5,48.6,56.5,48.3,57.5,48z M67.8,42.6c-2.4,0.2-4.6,0.8-6.6,1.5  c-1.3,1.1-2.6,2-3.9,2.8c1.5-0.3,3.1-0.6,4.8-0.8C64,45.3,66,44.1,67.8,42.6z M56.7,53.9c-0.9-0.6-1.8-1.1-2.6-1.5  C54.9,52.9,55.8,53.4,56.7,53.9z M56.7,46.1c-0.9,0.5-1.8,1-2.5,1.5C54.9,47.2,55.8,46.7,56.7,46.1z M53.5,28.9  c-0.1,0.2-0.2,0.3-0.2,0.5c0.5,2.1,0.6,4.1,0.6,6.1c1-1.7,2.1-3.4,3.6-4.9c0-0.2,0-0.4,0-0.5c0-1.9-0.3-3.8-0.7-5.5  C55.6,25.8,54.5,27.3,53.5,28.9z M63.5,32.4c1.8-1,3.7-1.7,5.5-2.2c0.6-2.1,0.8-4.3,0.9-6.2c-1.8,0.6-3.8,1.4-5.7,2.5  C64.2,28.4,64,30.4,63.5,32.4z M69.8,31c-0.5,1.8-1.2,3.7-2.2,5.5c2-0.5,4-0.7,5.9-0.7c1.1-1.9,1.9-3.9,2.5-5.7  C74.1,30.2,72,30.4,69.8,31z M60.6,39.4c1.7-1,3.6-1.9,5.6-2.5c0.1-0.2,0.2-0.3,0.3-0.5c1-1.7,1.7-3.4,2.2-5.1  c-1.7,0.5-3.5,1.2-5.1,2.2c-0.2,0.1-0.3,0.2-0.5,0.3C62.5,35.8,61.6,37.7,60.6,39.4z M42.6,32.2c0.2,2.4,0.8,4.6,1.5,6.6  c1.1,1.3,2,2.6,2.8,3.9c-0.3-1.5-0.6-3.1-0.8-4.8C45.3,36,44.1,34,42.6,32.2z M74.1,36.8c-1,1.6-2.2,3.3-3.6,4.8  c2.1,0,4,0.3,5.9,0.8c1.6-1.6,2.8-3.3,3.9-4.9C78.4,37.1,76.3,36.8,74.1,36.8z M53.9,43.3c-0.6,0.9-1.1,1.8-1.5,2.6  C52.9,45.1,53.4,44.2,53.9,43.3z M58.5,31c-0.1,2.1-0.4,4.1-1,6c1.4-1.4,3-2.7,4.8-3.9c0-0.2,0.1-0.3,0.2-0.5  c0.5-1.8,0.7-3.7,0.8-5.5c-1.5,1-3,2.1-4.4,3.4C58.7,30.7,58.6,30.8,58.5,31z M82.5,45.7c-1.7-0.9-3.7-1.7-5.8-2.3  c-1.4,1.3-2.9,2.6-4.7,3.7c2,0.6,3.8,1.4,5.5,2.3C79.4,48.3,81.1,47,82.5,45.7z M67.4,62.4c1.8,0.5,3.7,0.7,5.5,0.8  c-1-1.5-2.1-3-3.4-4.4c-0.1-0.1-0.3-0.3-0.4-0.4c-2.1-0.1-4.1-0.4-6-1c1.4,1.4,2.7,3,3.9,4.8C67,62.3,67.2,62.4,67.4,62.4z   M55.5,55.5c-0.7-0.8-1.4-1.5-2.1-2.1C54,54,54.7,54.7,55.5,55.5z M61.7,65.3c-0.8-2.2-2-4.2-3.2-6c-1.4-1-2.7-2-3.8-3.1  c0.7,1.3,1.4,2.8,2,4.4C58.2,62.3,59.8,63.9,61.7,65.3z M60.7,56.8c-1.6-0.6-3.1-1.3-4.4-2c1,1.1,2.1,2.4,3.1,3.8  c1.8,1.2,3.8,2.4,6,3.2C63.9,59.8,62.3,58.2,60.7,56.8z M71.3,47.9c-0.2,0-0.4-0.1-0.5-0.1c-1.9,1-3.8,1.7-5.7,2.2  c1.9,0.5,3.8,1.2,5.7,2.2c0.2,0,0.3-0.1,0.5-0.1c1.8-0.5,3.6-1.2,5.2-2.1C74.8,49.2,73.1,48.4,71.3,47.9z M71.1,53.5  c-0.2-0.1-0.3-0.2-0.5-0.3c-2,0.4-4,0.6-5.8,0.6c-0.1,0-0.1,0-0.2,0c1.7,1,3.4,2.2,5,3.6c0.2,0,0.4,0,0.5,0c1.9,0,3.8-0.3,5.5-0.7  C74.2,55.6,72.7,54.5,71.1,53.5z M70,22.9c0.1-3.2-0.2-5.8-0.4-6.9c-1,0.4-3.4,1.4-6.1,3.1c0.4,1.9,0.7,4,0.8,6.2  C66.2,24.3,68.2,23.5,70,22.9z M35.8,25.3c0.1-2.2,0.4-4.4,0.8-6.2c-2.7-1.7-5.1-2.7-6.1-3.1c-0.2,1.1-0.5,3.6-0.4,6.9  C31.8,23.5,33.8,24.3,35.8,25.3z M45,16.7c-2.2-2.3-4.2-3.9-5.1-4.6c-0.4,1-1.4,3.4-2.2,6.5c1.6,1,3.3,2.3,4.9,3.9  C43.3,20.4,44.1,18.4,45,16.7z M42.3,23.6c-1.6-1.6-3.3-2.8-4.9-3.9c-0.4,1.9-0.7,4-0.7,6.2c1.6,1,3.3,2.2,4.8,3.6  C41.6,27.5,41.9,25.5,42.3,23.6z M29.9,29.9c-0.5-2.2-0.8-4.3-0.9-6.2c-3.1-0.9-5.6-1.3-6.7-1.4c0.1,1.1,0.5,3.7,1.4,6.7  C25.6,29.1,27.7,29.3,29.9,29.9z M25.3,35.8c-1.1-2-1.9-3.9-2.5-5.8c-3.2-0.1-5.8,0.2-6.9,0.4c0.4,1,1.4,3.4,3.1,6.1  C21,36.1,23.1,35.8,25.3,35.8z M21.5,50c-1.9-1.2-3.6-2.5-5-3.8c-2.8,1.5-4.9,3.1-5.7,3.8c0.9,0.7,2.9,2.3,5.7,3.8  C18,52.5,19.6,51.2,21.5,50z M22.5,57.4c-2.2-0.6-4.1-1.5-5.8-2.3c-2.3,2.2-3.9,4.2-4.6,5.1c1,0.4,3.4,1.4,6.5,2.2  C19.7,60.7,21,59,22.5,57.4z M43.2,24.5c-0.4,1.8-0.7,3.6-0.7,5.5c0,0.2,0,0.4,0,0.5c1.4,1.6,2.6,3.2,3.6,4.9c0-2,0.2-4,0.6-6.1  c-0.1-0.2-0.2-0.3-0.2-0.5C45.5,27.3,44.4,25.8,43.2,24.5z M58.5,29.5c1.5-1.4,3.1-2.6,4.8-3.6c0-2.2-0.3-4.3-0.7-6.2  c-1.6,1.1-3.3,2.4-4.9,3.9C58.1,25.5,58.4,27.5,58.5,29.5z M62.3,18.6c-0.7-3.1-1.7-5.5-2.2-6.5c-0.9,0.6-2.9,2.2-5.1,4.6  c0.9,1.7,1.7,3.7,2.3,5.8C59,21,60.7,19.7,62.3,18.6z M47.1,28c0.6-2,1.4-3.8,2.3-5.5c-1.1-1.9-2.4-3.6-3.7-5  c-0.9,1.7-1.7,3.7-2.3,5.8C44.8,24.7,46,26.3,47.1,28z M77.7,22.3c-1.1,0.1-3.7,0.5-6.7,1.4c-0.1,1.9-0.4,4-0.9,6.2  c2.2-0.5,4.3-0.8,6.2-0.9C77.3,25.9,77.6,23.4,77.7,22.3z M52.9,28c1.1-1.8,2.3-3.3,3.7-4.7c-0.6-2.1-1.4-4.1-2.3-5.8  c-1.3,1.4-2.6,3.1-3.7,5C51.5,24.2,52.3,26,52.9,28z M53.8,16.5c-1.5-2.8-3.1-4.9-3.8-5.7c-0.7,0.9-2.3,2.9-3.8,5.7  c1.3,1.4,2.6,3.1,3.8,5C51.2,19.6,52.5,18,53.8,16.5z M37.7,81.4c0.7,3.1,1.7,5.5,2.2,6.5c0.9-0.6,2.9-2.2,5.1-4.6  c-0.9-1.7-1.7-3.7-2.3-5.8C41,79,39.3,80.3,37.7,81.4z M25.4,64.2c-2.2-0.1-4.4-0.3-6.2-0.8c-1.7,2.7-2.7,5.1-3.1,6.1  c1.1,0.2,3.6,0.5,6.9,0.4C23.5,68.2,24.3,66.2,25.4,64.2z M52.9,72c-0.6,2-1.4,3.8-2.3,5.5c1.1,1.9,2.4,3.6,3.7,5  c0.9-1.7,1.7-3.7,2.3-5.8C55.2,75.3,54,73.7,52.9,72z M55,83.3c2.2,2.3,4.2,3.9,5.1,4.6c0.4-1,1.4-3.4,2.2-6.5  c-1.6-1-3.3-2.3-4.9-3.9C56.7,79.6,55.9,81.6,55,83.3z M57.7,76.4c1.6,1.6,3.3,2.8,4.9,3.9c0.4-1.9,0.7-4,0.7-6.2  c-1.6-1-3.3-2.2-4.8-3.6C58.4,72.5,58.1,74.5,57.7,76.4z M83.3,55c-1.7,0.9-3.7,1.7-5.8,2.3c1.5,1.6,2.8,3.3,3.9,4.9  c3.1-0.7,5.5-1.7,6.5-2.2C87.2,59.3,85.7,57.2,83.3,55z M70.1,70.1c0.5,2.2,0.8,4.3,0.9,6.2c3.1,0.9,5.6,1.3,6.7,1.4  c-0.1-1.1-0.5-3.7-1.4-6.7C74.4,70.9,72.3,70.6,70.1,70.1z M74.7,64.2c1.1,2,1.9,3.9,2.5,5.8c3.2,0.1,5.8-0.2,6.9-0.4  c-0.4-1-1.4-3.4-3.1-6.1C79,63.9,76.9,64.2,74.7,64.2z M64.2,74.7c-0.1,2.2-0.4,4.4-0.8,6.2c2.7,1.7,5.1,2.7,6.1,3.1  c0.2-1.1,0.5-3.6,0.4-6.9C68.2,76.5,66.2,75.7,64.2,74.7z M30,77.1c-0.1,3.2,0.2,5.8,0.4,6.9c1-0.4,3.4-1.4,6.1-3.1  c-0.4-1.9-0.7-4-0.8-6.2C33.8,75.7,31.8,76.5,30,77.1z M22.3,77.7c1.1-0.1,3.7-0.5,6.7-1.4c0.1-1.9,0.4-4,0.9-6.2  c-2.2,0.5-4.3,0.8-6.2,0.9C22.7,74.1,22.4,76.6,22.3,77.7z M41.5,70.5c-1.5,1.4-3.1,2.6-4.8,3.6c0,2.2,0.3,4.3,0.7,6.2  c1.6-1.1,3.3-2.4,4.9-3.9C41.9,74.5,41.6,72.5,41.5,70.5z M47.1,72c-1.1,1.8-2.3,3.3-3.7,4.7c0.6,2.1,1.4,4.1,2.3,5.8  c1.3-1.4,2.6-3.1,3.7-5C48.5,75.8,47.7,74,47.1,72z M74.7,35.8c2.2,0.1,4.4,0.4,6.2,0.8c1.7-2.7,2.7-5.1,3.1-6.1  c-1.1-0.2-3.6-0.5-6.9-0.4C76.5,31.8,75.7,33.8,74.7,35.8z M46.2,83.5c1.5,2.8,3.1,4.9,3.8,5.7c0.7-0.9,2.3-2.9,3.8-5.7  c-1.3-1.4-2.6-3.1-3.8-5C48.8,80.4,47.5,82,46.2,83.5z M16.7,45c1.7-0.9,3.7-1.7,5.8-2.3c-1.5-1.6-2.8-3.3-3.9-4.9  c-3.1,0.7-5.5,1.7-6.5,2.2C12.8,40.7,14.3,42.8,16.7,45z M30.2,69c0.5-1.8,1.2-3.7,2.2-5.5c-2,0.5-4,0.7-5.9,0.7  c-1.1,1.9-1.9,3.9-2.5,5.7C25.9,69.8,28,69.6,30.2,69z M36.5,67.6c-1.8,1-3.7,1.7-5.5,2.3C30.4,72,30.2,74.1,30,76  c1.8-0.6,3.8-1.4,5.7-2.5C35.8,71.6,36,69.6,36.5,67.6z M25.9,63.2c1-1.6,2.2-3.3,3.6-4.8c-2.1,0-4-0.3-5.9-0.8  c-1.6,1.6-2.8,3.3-3.9,4.9C21.6,62.9,23.7,63.2,25.9,63.2z M46.5,71.1c0.1-0.2,0.2-0.3,0.2-0.5c-0.5-2.1-0.6-4.1-0.6-6.1  c-1,1.7-2.1,3.4-3.6,4.9c0,0.2,0,0.4,0,0.5c0,1.9,0.3,3.8,0.7,5.5C44.4,74.2,45.5,72.7,46.5,71.1z M23.3,56.5  c1.4-1.3,2.9-2.6,4.7-3.7c-2-0.6-3.8-1.4-5.5-2.3c-1.9,1.1-3.6,2.4-5,3.7C19.2,55.1,21.2,56,23.3,56.5z M41.5,69  c0.1-2.1,0.4-4.1,1-6c-1.4,1.4-3,2.7-4.8,3.9c0,0.2-0.1,0.3-0.2,0.5c-0.5,1.8-0.7,3.7-0.8,5.5c1.5-1,3-2.1,4.4-3.4  C41.3,69.3,41.4,69.2,41.5,69z M44.1,61.2c-0.7,2-1.3,4.3-1.5,6.6c1.5-1.8,2.7-3.8,3.6-5.8c0.1-1.7,0.4-3.3,0.8-4.8  C46.2,58.5,45.2,59.9,44.1,61.2z M39.4,60.6c-1.7,1-3.6,1.9-5.6,2.5c-0.1,0.2-0.2,0.3-0.3,0.5c-1,1.7-1.7,3.4-2.2,5.1  c1.7-0.5,3.5-1.2,5.1-2.2c0.2-0.1,0.3-0.2,0.5-0.3C37.5,64.2,38.4,62.3,39.4,60.6z M31.3,31.3c0.5,1.7,1.2,3.5,2.2,5.1  c0.1,0.2,0.2,0.3,0.3,0.5c2,0.6,3.9,1.5,5.6,2.5c-1-1.7-1.9-3.6-2.5-5.6c-0.2-0.1-0.3-0.2-0.5-0.3C34.8,32.5,33,31.8,31.3,31.3z   M22.5,49.4c1.7-0.9,3.5-1.7,5.5-2.3c-1.8-1.1-3.3-2.3-4.7-3.7c-2.1,0.6-4.1,1.4-5.8,2.3C18.9,47,20.6,48.3,22.5,49.4z M30,24  c0.1,1.9,0.4,4,0.9,6.2c1.8,0.5,3.7,1.2,5.5,2.2c-0.5-2-0.7-4-0.7-5.9C33.8,25.4,31.9,24.6,30,24z M41.2,30.6  c-1.4-1.4-2.8-2.5-4.4-3.4c0.1,1.8,0.3,3.7,0.8,5.5c0,0.2,0.1,0.3,0.2,0.5c1.8,1.1,3.4,2.5,4.8,3.9c-0.5-1.9-0.9-3.9-1-6  C41.4,30.8,41.3,30.7,41.2,30.6z M26.5,35.8c1.9,0,3.9,0.2,5.9,0.7c-1-1.8-1.7-3.7-2.2-5.5C28,30.4,25.9,30.2,24,30  C24.6,31.9,25.4,33.8,26.5,35.8z M23.6,42.3c1.9-0.5,3.8-0.8,5.9-0.8c-1.4-1.5-2.6-3.1-3.6-4.7c-2.2,0-4.3,0.3-6.2,0.7  C20.8,39.1,22.1,40.8,23.6,42.3z M76.4,57.7c-1.9,0.5-3.8,0.8-5.9,0.8c1.4,1.5,2.6,3.1,3.6,4.8c2.2,0,4.3-0.3,6.2-0.7  C79.2,60.9,77.9,59.3,76.4,57.7z M73.5,64.2c-1.9,0-3.9-0.2-5.9-0.7c1,1.8,1.7,3.7,2.2,5.5c2.1,0.6,4.3,0.8,6.2,0.9  C75.4,68.1,74.6,66.2,73.5,64.2z M46.1,56.7c0.6-0.9,1.1-1.8,1.5-2.6C47.1,54.9,46.6,55.8,46.1,56.7z M58.8,69.4  c1.4,1.4,2.8,2.5,4.4,3.4c-0.1-1.8-0.3-3.7-0.8-5.5c0-0.2-0.1-0.3-0.2-0.5c-1.8-1.1-3.4-2.5-4.8-3.9c0.5,1.9,0.9,3.9,1,6  C58.6,69.2,58.7,69.3,58.8,69.4z M68.7,68.7c-0.5-1.7-1.2-3.5-2.2-5.1c-0.1-0.2-0.2-0.3-0.3-0.5c-2-0.6-3.9-1.5-5.6-2.5  c1,1.7,1.9,3.6,2.5,5.6c0.2,0.1,0.3,0.2,0.5,0.3C65.2,67.5,67,68.2,68.7,68.7z M89.2,50c-0.9-0.7-2.9-2.3-5.7-3.8  c-1.4,1.3-3.1,2.6-5,3.8c1.9,1.2,3.6,2.5,5,3.8C86.3,52.3,88.4,50.7,89.2,50z M77.5,50.6c-1.7,0.9-3.5,1.7-5.5,2.3  c1.8,1.1,3.3,2.3,4.7,3.7c2.1-0.6,4.1-1.4,5.8-2.3C81.1,53,79.4,51.7,77.5,50.6z M77.5,42.6c2.2,0.6,4.1,1.5,5.8,2.3  c2.3-2.2,3.9-4.2,4.6-5.1c-1-0.4-3.4-1.4-6.5-2.2C80.3,39.3,79,41,77.5,42.6z M70,76c-0.1-1.9-0.4-4-0.9-6.2  c-1.8-0.5-3.7-1.3-5.5-2.3c0.5,2,0.7,4,0.7,5.9C66.2,74.6,68.1,75.4,70,76z M50,76.4c0.8-1.6,1.6-3.3,2.1-5.2c0-0.2,0.1-0.3,0.1-0.5  c-1-1.9-1.7-3.8-2.2-5.7c-0.5,1.9-1.2,3.8-2.2,5.7c0,0.2,0.1,0.3,0.1,0.5C48.4,73.1,49.2,74.8,50,76.4z M52.8,62.3  c-0.7-1.6-1.3-3.1-1.7-4.5c-0.1,1.5-0.2,3.1-0.5,4.8c0.4,2.1,1,4.3,2,6.5C52.9,66.8,52.9,64.5,52.8,62.3z M49.5,62.6  c-0.3-1.7-0.5-3.3-0.5-4.8c-0.4,1.4-1,3-1.7,4.5c-0.2,2.2-0.1,4.5,0.2,6.8C48.5,67,49.1,64.8,49.5,62.6z M57.4,67.8  c-0.2-2.4-0.8-4.6-1.5-6.6c-1.1-1.3-2-2.6-2.8-3.9c0.3,1.5,0.6,3.1,0.8,4.8C54.7,64,55.9,66,57.4,67.8z M56.8,75.5  c0.4-1.8,0.7-3.6,0.7-5.5c0-0.2,0-0.4,0-0.5c-1.4-1.6-2.6-3.2-3.6-4.9c0,2-0.2,4-0.6,6.1c0.1,0.2,0.2,0.3,0.2,0.5  C54.5,72.7,55.6,74.2,56.8,75.5z M52.4,54.2c0.4,0.8,0.9,1.6,1.5,2.5C53.4,55.8,52.9,54.9,52.4,54.2z"></path></g>
  <g id="SvgjsG1018" featurekey="vMvB0T-0" transform="matrix(1.8761472702026367,0,0,1.8761472702026367,91.14825550163586,-2.2944101587225667)" fill="#ffffff"><path d="M6.3 15.719999999999999 l-1.58 0 l0 4.28 q-0.64 0.12 -1.6 0.12 q-0.98 0 -1.6 -0.12 l0 -13.56 l0.14 -0.14 q1.74 -0.04 2.89 -0.06 t1.75 -0.02 q1.1 0 2.01 0.3 t1.55 0.9 t0.99 1.49 t0.35 2.05 t-0.36 2.05 t-1 1.49 t-1.55 0.91 t-1.99 0.31 z M4.72 8.66 l0 4.66 q0.56 -0.02 0.89 -0.03 t0.43 -0.01 q0.54 0 0.9 -0.19 t0.58 -0.5 t0.32 -0.73 t0.1 -0.88 q0 -0.44 -0.1 -0.86 t-0.31 -0.74 t-0.55 -0.51 t-0.8 -0.19 l-0.82 0 t-0.64 -0.02 z M15.42 17.14 q-0.54 0 -0.8 -0.02 l-0.86 2.9 q-0.48 0.12 -1.34 0.12 q-0.96 0 -1.56 -0.22 l-0.1 -0.16 l4.4 -13.42 q0.78 -0.12 1.82 -0.12 q1.18 0 1.88 0.14 l4.32 13.44 q-0.7 0.38 -1.58 0.38 q-1.04 0 -1.46 -0.36 t-0.72 -1.38 l-0.38 -1.32 q-0.26 0.02 -0.78 0.02 l-2.84 0 z M15.36 14.620000000000001 l0.8 -0.02 l1.46 0 q0.1 0 0.35 0.01 t0.37 0.01 l-0.34 -1.24 q-0.48 -1.68 -1.1 -4.12 l-0.12 0 q-0.16 0.86 -0.96 3.82 z M29.92 17.3 l3.46 0 q0 0.8 -0.1 1.37 t-0.64 0.98 t-1.42 0.41 l-4.52 0 q-0.86 0 -1.36 -0.5 t-0.5 -1.36 l0 -11.86 l0.14 -0.14 l1.18 0 q1.88 0 1.88 2.04 l0 9.14 q0.88 -0.08 1.88 -0.08 z M38.44 15.96 l-0.02 1.44 l0 0.02 q0.92 -0.04 1.48 -0.04 l4.64 0 q0 0.74 -0.06 1.14 q-0.24 1.54 -2.04 1.54 l-5.32 0 q-0.86 0 -1.35 -0.5 t-0.49 -1.36 l0 -11.72 l0.14 -0.14 l8.62 0 q0.12 0.58 0.12 1.26 t-0.28 1.42 l-5.46 0 l0.02 1.44 l0 1.4 q0.52 -0.02 1.36 -0.02 l3.06 0 q0.18 0.56 0.18 1.28 t-0.18 1.32 l-4.42 0 l0 1.52 z M51.940000000000005 8.98 l0.02 1.48 l0 9.54 q-0.68 0.12 -1.62 0.12 t-1.58 -0.12 l0 -11.02 l-1.28 0.02 l-2.06 0 q-0.12 -0.58 -0.12 -1.33 t0.12 -1.33 l9.9 0 q0.16 0.52 0.16 1.26 t-0.4 1.07 t-1.28 0.33 l-0.58 0 l-1.26 -0.02 l-0.02 0 z M63.10000000000001 8.98 l0.02 1.48 l0 9.54 q-0.68 0.12 -1.62 0.12 t-1.58 -0.12 l0 -11.02 l-1.28 0.02 l-2.06 0 q-0.12 -0.58 -0.12 -1.33 t0.12 -1.33 l9.9 0 q0.16 0.52 0.16 1.26 t-0.4 1.07 t-1.28 0.33 l-0.58 0 l-1.26 -0.02 l-0.02 0 z M71.26 15.96 l-0.02 1.44 l0 0.02 q0.92 -0.04 1.48 -0.04 l4.64 0 q0 0.74 -0.06 1.14 q-0.24 1.54 -2.04 1.54 l-5.32 0 q-0.86 0 -1.35 -0.5 t-0.49 -1.36 l0 -11.72 l0.14 -0.14 l8.62 0 q0.12 0.58 0.12 1.26 t-0.28 1.42 l-5.46 0 l0.02 1.44 l0 1.4 q0.52 -0.02 1.36 -0.02 l3.06 0 q0.18 0.56 0.18 1.28 t-0.18 1.32 l-4.42 0 l0 1.52 z M88.76 15.719999999999999 l-1.58 0 l0 4.28 q-0.64 0.12 -1.6 0.12 q-0.98 0 -1.6 -0.12 l0 -13.56 l0.14 -0.14 q1.74 -0.04 2.89 -0.06 t1.75 -0.02 q1.1 0 2.01 0.3 t1.55 0.9 t0.99 1.49 t0.35 2.05 t-0.36 2.05 t-1 1.49 t-1.55 0.91 t-1.99 0.31 z M87.18 8.66 l0 4.66 q0.56 -0.02 0.89 -0.03 t0.43 -0.01 q0.54 0 0.9 -0.19 t0.58 -0.5 t0.32 -0.73 t0.1 -0.88 q0 -0.44 -0.1 -0.86 t-0.31 -0.74 t-0.55 -0.51 t-0.8 -0.19 l-0.82 0 t-0.64 -0.02 z M95.80000000000001 20 l0 -13.66 q0.62 -0.12 1.6 -0.12 t1.62 0.12 l0 13.66 q-0.64 0.12 -1.62 0.12 t-1.6 -0.12 z M109.24000000000001 11.78 l0 -0.24 q0 -2.96 -2.2 -2.96 q-1.26 0 -1.82 1.15 t-0.56 3.39 q0 2.22 0.7 3.3 t2.04 1.08 q0.7 0 1.55 -0.33 t1.85 -1.05 q0.5 0.34 0.93 0.93 t0.53 1.13 q-0.46 0.44 -1.07 0.83 t-1.32 0.67 t-1.48 0.45 t-1.55 0.17 q-1.54 0 -2.6 -0.59 t-1.71 -1.57 t-0.94 -2.26 t-0.29 -2.66 q0 -1.8 0.45 -3.15 t1.22 -2.25 t1.81 -1.35 t2.22 -0.45 q1.2 0 2.18 0.32 t1.67 0.88 t1.06 1.32 t0.37 1.64 q0 1.78 -1.82 1.78 q-0.54 0 -1.22 -0.18 z M125.04000000000002 19.22 q-0.68 0.96 -2.12 0.96 q-0.82 0 -1.23 -0.42 t-0.71 -1.42 l-0.76 -2.34 q-0.3 -0.94 -0.72 -1.34 t-1.14 -0.4 q-0.24 0 -0.88 0.04 l0 5.7 q-0.62 0.12 -1.6 0.12 t-1.6 -0.12 l0 -13.66 q0.62 -0.12 1.6 -0.12 t1.6 0.12 l0 5.28 l0.52 -0.02 q0.36 0 0.52 -0.13 t0.38 -0.55 l1.9 -3.58 q0.3 -0.62 0.64 -0.87 t1.06 -0.25 q0.8 0 1.86 0.1 l0.18 0.22 l-2.44 4.6 q-0.46 0.92 -1.12 1.46 q0.94 0.2 1.41 0.76 t0.79 1.5 l0.82 2.48 q0.16 0.46 0.24 0.68 t0.4 0.74 q0.14 0.2 0.4 0.46 z M129.84000000000003 15.96 l-0.02 1.44 l0 0.02 q0.92 -0.04 1.48 -0.04 l4.64 0 q0 0.74 -0.06 1.14 q-0.24 1.54 -2.04 1.54 l-5.32 0 q-0.86 0 -1.35 -0.5 t-0.49 -1.36 l0 -11.72 l0.14 -0.14 l8.62 0 q0.12 0.58 0.12 1.26 t-0.28 1.42 l-5.46 0 l0.02 1.44 l0 1.4 q0.52 -0.02 1.36 -0.02 l3.06 0 q0.18 0.56 0.18 1.28 t-0.18 1.32 l-4.42 0 l0 1.52 z M147.96 10.56 q0 0.66 -0.2 1.25 t-0.53 1.06 t-0.78 0.82 t-0.93 0.53 q1.04 0.38 1.54 1.84 l0.6 1.7 q0.34 1 1 1.48 q-0.3 0.4 -0.9 0.67 t-1.32 0.27 t-1.12 -0.41 t-0.74 -1.43 l-0.72 -2.1 q-0.22 -0.6 -0.59 -0.92 t-1.11 -0.32 l-0.82 0 l0 5 q-0.64 0.12 -1.6 0.12 t-1.58 -0.12 l0 -13.56 l0.14 -0.14 q1.74 -0.04 2.93 -0.06 t1.87 -0.02 q1.1 0 2 0.27 t1.53 0.81 t0.98 1.36 t0.35 1.9 z M141.34 8.62 l0 3.92 q0.9 0 1.54 -0.03 t1.03 -0.24 t0.59 -0.59 t0.2 -1.1 q0 -1.94 -1.88 -1.94 l-0.83 0 t-0.65 -0.02 z"></path></g>
  <g id="SvgjsG1019" featurekey="sloganFeature-0" transform="matrix(0.618355393409729,0,0,0.618355393409729,92.93642865822576,52.747451228687545)" fill="#ffffff"><path d="M3.66 13.48 l0 6.52 l-1.94 0 l0 -14.36 l9.94 0 l0 1.72 l-8 0 l0 4.4 l7.04 0 l0 1.72 l-7.04 0 z M19.312 5.640000000000001 l0 14.36 l-1.94 0 l0 -14.36 l1.94 0 z M35.484 17.240000000000002 l0 -11.6 l1.88 0 l0 14.36 l-2.18 0 l-7.3 -11.6 l-0.04 0 l0 11.6 l-1.88 0 l0 -14.36 l2.3 0 l7.18 11.6 l0.04 0 z M43.836 20 l0 -14.36 l5.82 0 c3.74 0 6.04 2.84 6.04 6.98 c0 3.22 -1.4 7.38 -6.12 7.38 l-5.74 0 z M45.776 7.300000000000001 l0 11.04 l3.76 0 c2.52 0 4.16 -1.98 4.16 -5.6 s-1.66 -5.44 -4.3 -5.44 l-3.62 0 z M74.72 14.219999999999999 l0 5.78 l-1.94 0 l0 -5.78 l-5.42 -8.58 l2.26 0 l4.12 6.9 l4.12 -6.9 l2.28 0 z M96.532 12.82 c0 -3.38 -1.88 -5.84 -5 -5.84 s-5 2.46 -5 5.84 s1.88 5.84 5 5.84 s5 -2.46 5 -5.84 z M98.532 12.82 c0 3.1 -1.64 7.56 -7 7.56 s-7 -4.46 -7 -7.56 s1.64 -7.56 7 -7.56 s7 4.46 7 7.56 z M113.584 5.640000000000001 l1.94 0 l0 9.32 c0 2.94 -1.84 5.42 -5.78 5.42 c-3.86 0 -5.52 -2.48 -5.52 -5.16 l0 -9.58 l1.94 0 l0 9.04 c0 3.12 1.9 3.98 3.64 3.98 c1.78 0 3.78 -0.82 3.78 -3.94 l0 -9.08 z M124.116 13.84 l0 6.16 l-1.94 0 l0 -14.36 l6.64 0 c2.36 0 4.72 0.82 4.72 3.86 c0 2.12 -1.08 2.9 -2 3.44 c0.82 0.34 1.64 0.7 1.72 2.7 l0.12 2.6 c0.02 0.8 0.12 1.1 0.72 1.44 l0 0.32 l-2.38 0 c-0.28 -0.88 -0.34 -3.06 -0.34 -3.6 c0 -1.18 -0.24 -2.56 -2.56 -2.56 l-4.7 0 z M124.116 7.300000000000001 l0 4.88 l4.5 0 c1.42 0 2.92 -0.36 2.92 -2.48 c0 -2.22 -1.62 -2.4 -2.58 -2.4 l-4.84 0 z M160.55999999999997 9.96 l-1.88 0 c-0.54 -2.52 -2.64 -2.98 -4.02 -2.98 c-2.6 0 -4.7 1.92 -4.7 5.7 c0 3.38 1.2 5.98 4.76 5.98 c1.26 0 3.44 -0.6 4.1 -3.94 l1.88 0 c-0.8 5.42 -5.2 5.66 -6.28 5.66 c-3.26 0 -6.46 -2.12 -6.46 -7.64 c0 -4.42 2.52 -7.48 6.7 -7.48 c3.7 0 5.62 2.3 5.9 4.7 z M177.63199999999998 12.82 c0 -3.38 -1.88 -5.84 -5 -5.84 s-5 2.46 -5 5.84 s1.88 5.84 5 5.84 s5 -2.46 5 -5.84 z M179.63199999999998 12.82 c0 3.1 -1.64 7.56 -7 7.56 s-7 -4.46 -7 -7.56 s1.64 -7.56 7 -7.56 s7 4.46 7 7.56 z M187.20399999999998 5.640000000000001 l0 12.64 l7.28 0 l0 1.72 l-9.22 0 l0 -14.36 l1.94 0 z M210.97599999999997 12.82 c0 -3.38 -1.88 -5.84 -5 -5.84 s-5 2.46 -5 5.84 s1.88 5.84 5 5.84 s5 -2.46 5 -5.84 z M212.97599999999997 12.82 c0 3.1 -1.64 7.56 -7 7.56 s-7 -4.46 -7 -7.56 s1.64 -7.56 7 -7.56 s7 4.46 7 7.56 z M220.78799999999995 13.84 l0 6.16 l-1.94 0 l0 -14.36 l6.64 0 c2.36 0 4.72 0.82 4.72 3.86 c0 2.12 -1.08 2.9 -2 3.44 c0.82 0.34 1.64 0.7 1.72 2.7 l0.12 2.6 c0.02 0.8 0.12 1.1 0.72 1.44 l0 0.32 l-2.38 0 c-0.28 -0.88 -0.34 -3.06 -0.34 -3.6 c0 -1.18 -0.24 -2.56 -2.56 -2.56 l-4.7 0 z M220.78799999999995 7.300000000000001 l0 4.88 l4.5 0 c1.42 0 2.92 -0.36 2.92 -2.48 c0 -2.22 -1.62 -2.4 -2.58 -2.4 l-4.84 0 z M246.85999999999996 9.84 l-1.82 0 c-0.1 -2.22 -1.94 -2.92 -3.56 -2.92 c-1.22 0 -3.28 0.34 -3.28 2.52 c0 1.22 0.86 1.62 1.7 1.82 l4.1 0.94 c1.86 0.44 3.26 1.56 3.26 3.84 c0 3.4 -3.16 4.34 -5.62 4.34 c-2.66 0 -3.7 -0.8 -4.34 -1.38 c-1.22 -1.1 -1.46 -2.3 -1.46 -3.64 l1.82 0 c0 2.6 2.12 3.36 3.96 3.36 c1.4 0 3.76 -0.36 3.76 -2.42 c0 -1.5 -0.7 -1.98 -3.06 -2.54 l-2.94 -0.68 c-0.94 -0.22 -3.06 -0.88 -3.06 -3.38 c0 -2.24 1.46 -4.44 4.94 -4.44 c5.02 0 5.52 3 5.6 4.58 z"></path></g>
</svg>
